{
  "accessors": [
    {
      "bufferView": 0,
      "componentType": 5126,
      "count": 10000,
      "max": [
        -18774.572265625,
        -39472.7109375,
        52.21150207519531
      ],
      "min": [
        -18784.5390625,
        -39481.1328125,
        41.42049789428711
      ],
      "type": "VEC3"
    },
    {
      "bufferView": 1,
      "componentType": 5126,
      "count": 10000,
      "max": [
        1.0,
        1.0,
        1.0,
        1.0
      ],
      "min": [
        0.0,
        0.04313725605607033,
        0.0,
        1.0
      ],
      "type": "VEC4"
    },
    {
      "bufferView": 0,
      "byteOffset": 120000,
      "componentType": 5126,
      "count": 10000,
      "max": [
        -18775.0390625,
        -39472.77734375,
        52.225502014160156
      ],
      "min": [
        -18784.57421875,
        -39481.09375,
        41.416500091552734
      ],
      "type": "VEC3"
    },
    {
      "bufferView": 1,
      "byteOffset": 160000,
      "componentType": 5126,
      "count": 10000,
      "max": [
        1.0,
        1.0,
        1.0,
        1.0
      ],
      "min": [
        0.027450980618596077,
        0.05098039284348488,
        0.0,
        1.0
      ],
      "type": "VEC4"
    },
    {
      "bufferView": 0,
      "byteOffset": 240000,
      "componentType": 5126,
      "count": 10000,
      "max": [
        -18774.912109375,
        -39476.2109375,
        52.23250198364258
      ],
      "min": [
        -18784.71875,
        -39481.1328125,
        42.59149932861328
      ],
      "type": "VEC3"
    },
    {
      "bufferView": 1,
      "byteOffset": 320000,
      "componentType": 5126,
      "count": 10000,
      "max": [
        1.0,
        1.0,
        1.0,
        1.0
      ],
      "min": [
        0.0,
        0.0470588244497776,
        0.0,
        1.0
      ],
      "type": "VEC4"
    },
    {
      "bufferView": 0,
      "byteOffset": 360000,
      "componentType": 5126,
      "count": 10000,
      "max": [
        -18774.8828125,
        -39476.2109375,
        49.87849807739258
      ],
      "min": [
        -18784.552734375,
        -39481.12890625,
        42.59049987792969
      ],
      "type": "VEC3"
    },
    {
      "bufferView": 1,
      "byteOffset": 480000,
      "componentType": 5126,
      "count": 10000,
      "max": [
        1.0,
        1.0,
        1.0,
        1.0
      ],
      "min": [
        0.0313725508749485,
        0.062745101749897,
        0.0,
        1.0
      ],
      "type": "VEC4"
    },
    {
      "bufferView": 0,
      "byteOffset": 480000,
      "componentType": 5126,
      "count": 10000,
      "max": [
        -18774.953125,
        -39476.2109375,
        47.837501525878906
      ],
      "min": [
        -18781.087890625,
        -39479.3203125,
        43.74250030517578
      ],
      "type": "VEC3"
    },
    {
      "bufferView": 1,
      "byteOffset": 640000,
      "componentType": 5126,
      "count": 10000,
      "max": [
        1.0,
        1.0,
        1.0,
        1.0
      ],
      "min": [
        0.0,
        0.0470588244497776,
        0.0,
        1.0
      ],
      "type": "VEC4"
    },
    {
      "bufferView": 0,
      "byteOffset": 600000,
      "componentType": 5126,
      "count": 10000,
      "max": [
        -18775.140625,
        -39473.0859375,
        52.23649978637695
      ],
      "min": [
        -18783.37890625,
        -39480.90234375,
        42.60449981689453
      ],
      "type": "VEC3"
    },
    {
      "bufferView": 1,
      "byteOffset": 800000,
      "componentType": 5126,
      "count": 10000,
      "max": [
        1.0,
        1.0,
        1.0,
        1.0
      ],
      "min": [
        0.027450980618596077,
        0.0313725508749485,
        0.0,
        1.0
      ],
      "type": "VEC4"
    },
    {
      "bufferView": 0,
      "byteOffset": 720000,
      "componentType": 5126,
      "count": 10000,
      "max": [
        -18774.537109375,
        -39473.26953125,
        49.884498596191406
      ],
      "min": [
        -18781.15625,
        -39476.2109375,
        45.080501556396484
      ],
      "type": "VEC3"
    },
    {
      "bufferView": 1,
      "byteOffset": 960000,
      "componentType": 5126,
      "count": 10000,
      "max": [
        1.0,
        1.0,
        1.0,
        1.0
      ],
      "min": [
        0.0,
        0.03921568766236305,
        0.0,
        1.0
      ],
      "type": "VEC4"
    },
    {
      "bufferView": 0,
      "byteOffset": 840000,
      "componentType": 5126,
      "count": 991,
      "max": [
        -18775.990234375,
        -39472.78125,
        50.509498596191406
      ],
      "min": [
        -18780.84375,
        -39476.19921875,
        45.760498046875
      ],
      "type": "VEC3"
    },
    {
      "bufferView": 1,
      "byteOffset": 1120000,
      "componentType": 5126,
      "count": 991,
      "max": [
        1.0,
        1.0,
        1.0,
        1.0
      ],
      "min": [
        0.06666667014360428,
        0.062745101749897,
        0.05098039284348488,
        1.0
      ],
      "type": "VEC4"
    }
  ],
  "asset": {
    "extras": {
      "author": "mmsroadsidetree (https://sketchfab.com/mmsroadsidetree)",
      "license": "CC-BY-4.0 (http://creativecommons.org/licenses/by/4.0/)",
      "source": "https://sketchfab.com/3d-models/tree63-pointcloud-080483a68630459b87ac4cb97bf062c3",
      "title": "tree63-pointcloud"
    },
    "generator": "Sketchfab-13.3.0",
    "version": "2.0"
  },
  "bufferViews": [
    {
      "buffer": 0,
      "byteLength": 851892,
      "byteStride": 12,
      "name": "floatBufferViews",
      "target": 34962
    },
    {
      "buffer": 0,
      "byteLength": 1135856,
      "byteOffset": 851892,
      "byteStride": 16,
      "name": "floatBufferViews",
      "target": 34962
    }
  ],
  "buffers": [
    {
      "byteLength": 1987748,
      "uri": "scene.bin"
    }
  ],
  "extensionsUsed": [
    "KHR_materials_unlit"
  ],
  "materials": [
    {
      "doubleSided": true,
      "extensions": {
        "KHR_materials_unlit": {}
      },
      "name": "Scene_-_Root",
      "pbrMetallicRoughness": {
        "metallicFactor": 0.0
      }
    }
  ],
  "meshes": [
    {
      "name": "Object_0",
      "primitives": [
        {
          "attributes": {
            "COLOR_0": 1,
            "POSITION": 0
          },
          "material": 0,
          "mode": 0
        }
      ]
    },
    {
      "name": "Object_1",
      "primitives": [
        {
          "attributes": {
            "COLOR_0": 3,
            "POSITION": 2
          },
          "material": 0,
          "mode": 0
        }
      ]
    },
    {
      "name": "Object_2",
      "primitives": [
        {
          "attributes": {
            "COLOR_0": 5,
            "POSITION": 4
          },
          "material": 0,
          "mode": 0
        }
      ]
    },
    {
      "name": "Object_3",
      "primitives": [
        {
          "attributes": {
            "COLOR_0": 7,
            "POSITION": 6
          },
          "material": 0,
          "mode": 0
        }
      ]
    },
    {
      "name": "Object_4",
      "primitives": [
        {
          "attributes": {
            "COLOR_0": 9,
            "POSITION": 8
          },
          "material": 0,
          "mode": 0
        }
      ]
    },
    {
      "name": "Object_5",
      "primitives": [
        {
          "attributes": {
            "COLOR_0": 11,
            "POSITION": 10
          },
          "material": 0,
          "mode": 0
        }
      ]
    },
    {
      "name": "Object_6",
      "primitives": [
        {
          "attributes": {
            "COLOR_0": 13,
            "POSITION": 12
          },
          "material": 0,
          "mode": 0
        }
      ]
    },
    {
      "name": "Object_7",
      "primitives": [
        {
          "attributes": {
            "COLOR_0": 15,
            "POSITION": 14
          },
          "material": 0,
          "mode": 0
        }
      ]
    }
  ],
  "nodes": [
    {
      "children": [
        1
      ],
      "matrix": [
        1.0,
        0.0,
        0.0,
        0.0,
        0.0,
        2.220446049250313e-16,
        -1.0,
        0.0,
        0.0,
        1.0,
        2.220446049250313e-16,
        0.0,
        0.0,
        0.0,
        0.0,
        1.0
      ],
      "name": "Sketchfab_model"
    },
    {
      "children": [
        2,
        3,
        4,
        5,
        6,
        7,
        8,
        9
      ],
      "matrix": [
        1.0,
        0.0,
        0.0,
        0.0,
        0.0,
        1.0,
        0.0,
        0.0,
        0.0,
        0.0,
        1.0,
        0.0,
        5.091491785233302,
        4.211990352469002,
        5.410000325759171,
        1.0
      ],
      "name": "44a7451d68da49819789c91c90df8ac7.las.cleaner.materialmerger.gles"
    },
    {
      "mesh": 0,
      "name": "Object_2"
    },
    {
      "mesh": 1,
      "name": "Object_3"
    },
    {
      "mesh": 2,
      "name": "Object_4"
    },
    {
      "mesh": 3,
      "name": "Object_5"
    },
    {
      "mesh": 4,
      "name": "Object_6"
    },
    {
      "mesh": 5,
      "name": "Object_7"
    },
    {
      "mesh": 6,
      "name": "Object_8"
    },
    {
      "mesh": 7,
      "name": "Object_9"
    }
  ],
  "scene": 0,
  "scenes": [
    {
      "name": "Sketchfab_Scene",
      "nodes": [
        0
      ]
    }
  ]
}
